<svg width="235" height="109" viewBox="0 0 235 109" fill="none" xmlns="http://www.w3.org/2000/svg">
<path d="M3.19785 48.9547C85.2173 98.7078 83.1698 108.268 130.391 98.2134C177.611 88.159 204.53 85.1177 231.689 60.1551C231.689 60.1551 155.787 -7.9906 111.312 9.20194C66.8365 26.3945 78.964 35.8969 3.19785 48.9547Z" fill="#C54846"/>
<path d="M81.7588 54.941C140.88 52.0195 174.664 48.9981 232.357 66.8564L232.822 53.6266C173.565 42.4455 140.599 48.1099 81.7588 54.941Z" fill="#F5E2B0"/>
<path d="M197.329 76.8379C199.902 67.9346 202.026 63.9552 209.927 59.1716L203.634 55.6657C198.534 63.1708 197.548 67.9181 197.329 76.8379Z" fill="#F5E2B0"/>
<path d="M145.126 72.1182C148.158 62.4639 149.713 58.7652 157.321 52.9419L152.507 49.1418C147.263 57.5661 146 62.6762 145.126 72.1182Z" fill="#F5E2B0"/>
<path d="M178.408 30.2209C180.081 38.7197 181.648 42.6474 188.029 48.0773L182.542 50.456C178.667 42.9034 178.1 38.4229 178.408 30.2209Z" fill="#F5E2B0"/>
</svg>
